<svg width="137" height="20" viewBox="0 0 137 20" fill="none" xmlns="http://www.w3.org/2000/svg">
<path d="M28.7154 6.20087C29.2596 5.70027 29.7774 5.31503 30.2688 5.04515C30.7622 4.77527 31.2678 4.64033 31.7856 4.64033C32.1104 4.64033 32.4018 4.6742 32.6597 4.74193C32.9196 4.79485 33.1724 4.8901 33.4181 5.02769L33.0495 7.2137C32.8292 7.07824 32.5896 6.96976 32.3307 6.88826C32.0708 6.80571 31.7856 6.76444 31.4749 6.76444C31.2678 6.76444 31.0673 6.79089 30.8733 6.84381C30.6906 6.89885 30.4962 6.98034 30.2901 7.08829C30.0952 7.18354 29.888 7.3116 29.6687 7.47247C29.4606 7.62064 29.2205 7.78892 28.9484 7.9773V13.1447H31.8267V14.9481H24.2077V13.1479H26.6169V6.74697H24.3249V4.9245H28.5586L28.7154 6.20087ZM37.4568 4.9245V11.3444C37.4568 12.0472 37.5664 12.534 37.7857 12.805C38.0192 13.059 38.3304 13.186 38.7192 13.186C39.0665 13.186 39.4279 13.1055 39.8035 12.9447C40.1792 12.769 40.568 12.5192 40.9701 12.1954V4.9245H43.3001V14.9513H41.3965L41.2396 13.9194C40.9807 14.1067 40.7218 14.275 40.4629 14.4242C40.204 14.5724 39.9386 14.7005 39.6665 14.8084C39.3944 14.9164 39.1152 14.9973 38.8289 15.0513C38.5578 15.1212 38.2669 15.1561 37.9563 15.1561C37.0222 15.1561 36.3166 14.8994 35.8395 14.3861C35.3593 13.8612 35.1191 13.0177 35.1191 11.8556V4.9245H37.4568ZM45.8844 4.9245H47.788L47.9433 5.95639C48.4357 5.60713 48.9281 5.31714 49.4205 5.08642C49.9261 4.85676 50.4703 4.74193 51.0531 4.74193C51.5576 4.74193 52.0176 4.8229 52.4328 4.98482C52.847 5.14675 53.1973 5.42351 53.4836 5.8151C53.78 6.20669 54.0059 6.72686 54.1613 7.37563C54.3278 8.02334 54.411 8.83298 54.411 9.80454C54.411 10.7782 54.3009 11.609 54.0806 12.297C53.8602 12.9722 53.5623 13.5257 53.1866 13.9575C52.8252 14.3766 52.3988 14.6804 51.9074 14.8687C51.414 15.0592 50.8825 15.1545 50.3129 15.1545C49.8987 15.1545 49.5099 15.1 49.1464 14.991C48.7972 14.8957 48.4606 14.7539 48.1367 14.5655L48.1169 14.5862C48.1454 14.9778 48.1657 15.3429 48.1779 15.6816C48.2043 16.0181 48.2175 16.3684 48.2175 16.7325V19.2455H45.8874L45.8844 4.9245ZM48.2144 12.7034C48.5129 12.878 48.7982 13.0124 49.0703 13.1066C49.3424 13.2018 49.6342 13.2495 49.9459 13.2495C50.2302 13.2495 50.4967 13.2018 50.7454 13.1066C51.0043 13.0113 51.2307 12.8367 51.4246 12.5827C51.6328 12.3245 51.7952 11.9794 51.912 11.5476C52.0287 11.1158 52.0871 10.5623 52.0871 9.88709C52.0871 9.22563 52.0485 8.68587 51.9714 8.26782C51.8922 7.84766 51.7754 7.52327 51.6211 7.29467C51.479 7.06501 51.2972 6.90943 51.0759 6.82794C50.8688 6.73586 50.6302 6.68982 50.3602 6.68982C50.0353 6.68982 49.7043 6.77767 49.3672 6.95335C49.0302 7.11422 48.6479 7.3497 48.2205 7.6598L48.2144 12.7034ZM62.3011 8.04398C62.3011 7.55714 62.1513 7.19201 61.8518 6.94859C61.5523 6.70517 61.0599 6.58346 60.3746 6.58346C59.9076 6.58346 59.4213 6.61785 58.9157 6.68665C58.4101 6.75438 57.9111 6.84222 57.4187 6.95018L57.2055 5.16739C57.7487 5.03192 58.3243 4.92397 58.9325 4.84353C59.5416 4.76416 60.1508 4.72447 60.7599 4.72447C61.4706 4.72447 62.0726 4.7922 62.5661 4.92767C63.0595 5.04938 63.4554 5.2383 63.7539 5.49442C64.0646 5.74842 64.2844 6.07863 64.4133 6.48503C64.5554 6.89038 64.6265 7.36981 64.6265 7.92333V14.9513H62.6909L62.5539 14.021C62.0625 14.3332 61.5381 14.6031 60.9807 14.8306C60.4366 15.0487 59.8538 15.1577 59.2325 15.1577C58.3492 15.1577 57.6233 14.9142 57.0547 14.4274C56.4964 13.9406 56.2172 13.1981 56.2172 12.2001C56.2172 11.6741 56.3014 11.2016 56.47 10.7825C56.6385 10.3634 56.9177 10.012 57.3075 9.72834C57.7076 9.4447 58.2314 9.22774 58.8792 9.07746C59.5269 8.92929 60.3239 8.8552 61.2701 8.8552H62.2996L62.3011 8.04398ZM61.3264 10.4332C60.7437 10.4332 60.2584 10.4671 59.8706 10.5348C59.4817 10.5877 59.1705 10.683 58.937 10.8206C58.7035 10.9539 58.5411 11.1222 58.4497 11.3254C58.3604 11.5138 58.3157 11.7429 58.3157 12.0128C58.3157 12.4859 58.4385 12.8298 58.6842 13.0447C58.9421 13.2489 59.2974 13.3511 59.7502 13.3511C60.1767 13.3511 60.5777 13.277 60.9533 13.1288C61.3432 12.9658 61.7899 12.7293 62.2935 12.4192V10.4348L61.3264 10.4332ZM73.9968 13.1479V14.9513H68.4581V1.8066H65.4276V0H70.7881V13.1479H73.9968ZM76.2172 8.52817H82.5904V10.6158H76.2172V8.52817ZM93.2171 14.7481C92.7633 14.856 92.2775 14.9513 91.7597 15.0338C91.2541 15.1132 90.7485 15.1529 90.2429 15.1529C89.4003 15.1529 88.6693 15.0788 88.05 14.9307C87.4408 14.7687 86.9347 14.492 86.5317 14.1004C86.1438 13.7088 85.8459 13.1817 85.6377 12.5192C85.4448 11.8577 85.3484 11.0206 85.3484 10.0077C85.3484 8.98115 85.4712 8.13076 85.7169 7.4566C85.9626 6.78137 86.2992 6.24161 86.7266 5.83732C87.1672 5.41716 87.6982 5.12611 88.3195 4.96419C88.9388 4.80226 89.6307 4.72129 90.3952 4.72129C90.913 4.72129 91.412 4.75516 91.8922 4.8229C92.3714 4.89063 92.8384 4.98588 93.2933 5.10865L93.077 6.88668C92.6628 6.78084 92.2618 6.70676 91.8739 6.66442C91.4841 6.6115 91.0496 6.58505 90.5704 6.58505C90.1165 6.58505 89.7079 6.63267 89.3444 6.72792C88.9952 6.80836 88.6906 6.97663 88.4307 7.23276C88.185 7.47618 87.9972 7.81379 87.8672 8.2456C87.7383 8.67952 87.6738 9.24044 87.6738 9.92837C87.6738 10.6301 87.7256 11.1963 87.8292 11.627C87.9459 12.0472 88.1211 12.3859 88.3546 12.643C88.5881 12.897 88.886 13.0717 89.2485 13.1669C89.6109 13.2622 90.0511 13.3098 90.5688 13.3098C90.9567 13.3098 91.3577 13.2833 91.7719 13.2304C92.1983 13.1616 92.6196 13.0733 93.0359 12.9653L93.2171 14.7481ZM104.444 9.86646C104.444 10.9058 104.34 11.7699 104.132 12.4589C103.925 13.1468 103.627 13.7003 103.239 14.1194C102.85 14.5248 102.377 14.8084 101.82 14.9703C101.276 15.146 100.66 15.2339 99.9742 15.2339C99.2614 15.2339 98.633 15.1529 98.0888 14.991C97.5446 14.8428 97.0847 14.5729 96.7091 14.1813C96.3466 13.7898 96.0685 13.2563 95.8746 12.5811C95.6796 11.9059 95.5822 11.0486 95.5822 10.0093C95.5822 8.96898 95.6862 8.10431 95.8944 7.41532C96.1015 6.72739 96.3928 6.18234 96.7685 5.78017C97.1563 5.36001 97.6223 5.06896 98.1665 4.90703C98.7107 4.73135 99.3325 4.64351 100.032 4.64351C100.745 4.64351 101.373 4.72447 101.917 4.8864C102.462 5.03457 102.921 5.30444 103.297 5.69603C103.673 6.08762 103.957 6.62209 104.15 7.29943C104.346 7.9736 104.444 8.83086 104.444 9.87122V9.86646ZM102.092 9.94583C102.092 9.24521 102.047 8.67158 101.955 8.22496C101.878 7.78045 101.749 7.4312 101.567 7.17719C101.399 6.92001 101.178 6.7438 100.906 6.64855C100.647 6.5533 100.343 6.50567 99.9924 6.50567C99.6432 6.50567 99.3386 6.5533 99.0787 6.64855C98.835 6.7438 98.6218 6.91948 98.4391 7.1756C98.2564 7.41902 98.1269 7.76299 98.0508 8.20749C97.9695 8.652 97.9289 9.22563 97.9289 9.92837C97.9289 10.6311 97.9685 11.2121 98.0477 11.6715C98.1238 12.1181 98.2528 12.4695 98.4345 12.7256C98.6173 12.9817 98.8305 13.1574 99.0741 13.2526C99.334 13.3479 99.6452 13.3955 100.008 13.3955C100.358 13.3955 100.662 13.3479 100.921 13.2526C101.18 13.1574 101.393 12.9881 101.561 12.7446C101.744 12.4885 101.874 12.1377 101.951 11.6921C102.042 11.2328 102.088 10.6523 102.088 9.95059L102.092 9.94583ZM112.718 13.9178C112.224 14.2692 111.725 14.5655 111.221 14.8068C110.728 15.0375 110.19 15.1529 109.606 15.1529C109.102 15.1529 108.642 15.0719 108.228 14.91C107.814 14.7481 107.458 14.4713 107.159 14.0797C106.875 13.6882 106.648 13.1669 106.478 12.516C106.323 11.8683 106.245 11.0587 106.245 10.0871C106.245 9.10074 106.356 8.26994 106.576 7.59471C106.796 6.91948 107.087 6.37232 107.448 5.95321C107.824 5.52246 108.259 5.2129 108.754 5.02451C109.246 4.83401 109.777 4.73876 110.348 4.73876C110.762 4.73876 111.144 4.78638 111.493 4.88163C111.857 4.97689 112.2 5.1187 112.524 5.30709L112.543 5.28645C112.517 4.90968 112.492 4.55249 112.466 4.21487C112.453 3.8635 112.447 3.50578 112.447 3.14171V0H114.78V14.9497H112.876L112.718 13.9178ZM112.444 7.17084C112.146 6.99621 111.862 6.8618 111.591 6.76761C111.317 6.67236 111.025 6.62473 110.715 6.62473C110.431 6.62473 110.159 6.67236 109.899 6.76761C109.651 6.86286 109.424 7.03855 109.217 7.29467C109.022 7.55079 108.866 7.89475 108.749 8.32656C108.632 8.76048 108.574 9.32141 108.574 10.0093C108.574 10.6697 108.613 11.2095 108.693 11.6286C108.771 12.034 108.881 12.3578 109.023 12.6002C109.178 12.8298 109.36 12.9854 109.567 13.0669C109.774 13.1495 110.014 13.1907 110.286 13.1907C110.623 13.1907 110.96 13.1098 111.297 12.9478C111.634 12.7859 112.016 12.5499 112.444 12.2398V7.17084ZM125.284 14.6878C124.767 14.8359 124.216 14.9508 123.632 15.0323C123.064 15.1106 122.435 15.1497 121.747 15.1497C121.02 15.1497 120.371 15.0825 119.801 14.9481C119.232 14.8126 118.753 14.5623 118.363 14.1972C117.974 13.8194 117.676 13.2997 117.468 12.6383C117.26 11.963 117.157 11.0846 117.157 10.003C117.157 8.9658 117.267 8.10219 117.487 7.41215C117.708 6.72422 118.019 6.17811 118.421 5.77382C118.822 5.35472 119.301 5.06367 119.858 4.90068C120.427 4.72606 121.042 4.63874 121.704 4.63874C122.377 4.63874 122.96 4.71283 123.452 4.861C123.945 4.99646 124.353 5.23988 124.677 5.59126C125.014 5.92993 125.26 6.3956 125.415 6.98828C125.584 7.58307 125.668 8.33238 125.668 9.23621C125.668 9.46375 125.662 9.69236 125.648 9.92202C125.648 10.1379 125.635 10.3676 125.609 10.611H119.487C119.501 11.1931 119.56 11.6588 119.664 12.008C119.78 12.3594 119.943 12.6293 120.151 12.8177C120.37 13.0082 120.648 13.1368 120.985 13.2034C121.323 13.2701 121.719 13.3034 122.173 13.3034C122.716 13.3034 123.215 13.2696 123.669 13.2018C124.136 13.1203 124.608 13.0198 125.085 12.9002L125.284 14.6878ZM123.594 9.03618C123.594 8.52288 123.548 8.09743 123.457 7.75981C123.38 7.42114 123.257 7.16449 123.088 6.98986C122.92 6.80148 122.713 6.67342 122.467 6.60568C122.234 6.52631 121.962 6.48662 121.651 6.48662C121.326 6.48662 121.034 6.52737 120.775 6.60886C120.518 6.69035 120.293 6.82582 120.099 7.01526C119.916 7.20577 119.774 7.4693 119.673 7.80585C119.568 8.12971 119.509 8.5414 119.496 9.04094L123.594 9.03618ZM132.294 6.20087C132.838 5.70027 133.356 5.31503 133.848 5.04515C134.34 4.77527 134.846 4.64033 135.364 4.64033C135.689 4.64033 135.982 4.6742 136.242 4.74193C136.501 4.79485 136.753 4.8901 137 5.02769L136.63 7.2137C136.411 7.07824 136.172 6.96976 135.914 6.88826C135.654 6.80571 135.37 6.76444 135.061 6.76444C134.852 6.76444 134.65 6.79089 134.455 6.84381C134.275 6.89885 134.081 6.98034 133.874 7.08829C133.681 7.18354 133.474 7.3116 133.252 7.47247C133.045 7.62064 132.805 7.78892 132.533 7.9773V13.1447H135.409V14.9481H127.794V13.1479H130.2V6.74697H127.908V4.9245H132.147L132.294 6.20087Z" fill="white"/>
<path d="M9.01388 11.0968H12.0749V7.90586H9.01388V11.0968Z" fill="#F9E050"/>
<path d="M4.50621 3.2068H7.5672V0.873145H4.50621V3.2068Z" fill="#F4F464"/>
<path d="M6.76008 5.55631H9.82107V2.36539H6.76008V5.55631ZM0 5.55631H2.25387V3.20677H0V5.55631ZM4.50621 7.90267H6.76008V5.55313H4.50621V7.90267Z" fill="#F4F464"/>
<path d="M9.01388 13.44H12.0749V10.2491H9.01388V13.44Z" fill="#F9B038"/>
<path d="M8.20828 14.9513H12.0734V12.6017H8.20828V14.9513Z" fill="#F6842D"/>
<path d="M2.25384 14.9513H4.5077V12.6017H2.25384V14.9513Z" fill="#F9E050"/>
<path d="M9.01388 4.04819H12.0749V0.873145H9.01388V4.04819Z" fill="#F6842D"/>
<path d="M4.50621 12.6002H6.76007V10.2506H4.50621V12.6002Z" fill="#F4F464"/>
<path d="M11.254 6.39771H14.315V3.20679H11.254V6.39771Z" fill="#F4AC2B"/>
<path d="M11.254 8.74247H14.315V5.55155H11.254V8.74247Z" fill="#F6842D"/>
<path d="M11.254 11.0968H14.315V7.90586H11.254V11.0968Z" fill="#F4AC2B"/>
<path d="M11.254 13.44H14.315V10.2491H11.254V13.44Z" fill="#F6842D"/>
<path d="M11.2693 0.873146V3.2068H13.5079V12.6018H11.254V14.9513H17.2953C18.203 14.9513 18.9888 14.8433 19.6497 14.6259C20.3106 14.4115 20.8528 14.0337 21.2792 13.494C21.7056 12.9542 22.0254 12.2239 22.2325 11.3032C22.4396 10.3856 22.5417 9.21875 22.5417 7.79951C22.5417 6.36756 22.4457 5.2055 22.2523 4.31648C22.0574 3.41159 21.7528 2.70832 21.3386 2.20825C20.928 1.68986 20.3694 1.32167 19.7441 1.15731C19.0969 0.96681 18.3126 0.871558 17.3943 0.871558H13.5064L11.2693 0.873146ZM15.8577 2.79881H17.3151C17.8177 2.79881 18.2532 2.85914 18.6157 2.97979C18.9943 3.09089 19.3156 3.35333 19.5096 3.71005C19.7441 4.07518 19.9116 4.58795 20.0152 5.24995C20.1325 5.91194 20.1903 6.78984 20.1903 7.88524C20.1903 8.97745 20.1294 9.8617 20.0137 10.5364C19.9116 11.1984 19.7441 11.7175 19.5111 12.0953C19.2958 12.4442 18.9739 12.7072 18.5974 12.8415C18.2319 12.9637 17.8055 13.024 17.3136 13.024H15.8577V2.79881Z" fill="#F14D34"/>
<path d="M9.01388 5.55633H11.2677V3.20679H9.01388V5.55633Z" fill="#F9E050"/>
<path d="M6.76005 14.9513H9.01391V12.6017H6.76005V14.9513Z" fill="#F9B038"/>
<path d="M6.76005 3.2068H9.01391V0.873145H6.76005V3.2068Z" fill="#F9E050"/>
</svg>
