<svg width="514" height="398" viewBox="0 0 514 398" fill="none" xmlns="http://www.w3.org/2000/svg">
<g filter="url(#filter0_dd_94_704)">
<mask id="mask0_94_704" style="mask-type:alpha" maskUnits="userSpaceOnUse" x="10" y="18" width="481" height="348">
<path d="M226.369 259.886L287.419 245.346L272.879 184.297L211.83 198.836L226.369 259.886Z" fill="#F9E050"/>
<path d="M100.513 130.345L161.563 115.806L150.93 71.1576L89.8801 85.6972L100.513 130.345Z" fill="#F4F464"/>
<path d="M156.172 164.59L217.221 150.051L202.681 89.0014L141.632 103.541L156.172 164.59ZM21.3465 196.7L66.2983 185.995L55.5926 141.043L10.6408 151.749L21.3465 196.7ZM121.911 220.187L166.863 209.481L156.157 164.53L111.205 175.235L121.911 220.187Z" fill="#F4F464"/>
<path d="M237.046 304.717L298.096 290.177L283.556 229.128L222.507 243.667L237.046 304.717Z" fill="#F9B038"/>
<path d="M227.864 337.46L304.95 319.101L294.244 274.149L217.158 292.508L227.864 337.46Z" fill="#F6842D"/>
<path d="M109.107 365.742L154.059 355.036L143.353 310.084L98.4016 320.79L109.107 365.742Z" fill="#F9E050"/>
<path d="M194.252 125.032L255.302 110.492L240.835 49.7468L179.785 64.2863L194.252 125.032Z" fill="#F6842D"/>
<path d="M143.315 310.061L188.267 299.356L177.561 254.404L132.609 265.109L143.315 310.061Z" fill="#F4F464"/>
<path d="M249.635 159.345L310.685 144.805L296.145 83.7556L235.096 98.2951L249.635 159.345Z" fill="#F4AC2B"/>
<path d="M260.319 204.204L321.368 189.664L306.829 128.615L245.779 143.155L260.319 204.204Z" fill="#F6842D"/>
<path d="M271.047 249.245L332.096 234.706L317.557 173.656L256.507 188.196L271.047 249.245Z" fill="#F4AC2B"/>
<path d="M281.723 294.076L342.773 279.537L328.233 218.487L267.184 233.027L281.723 294.076Z" fill="#F6842D"/>
<path d="M224.766 53.5746L235.399 98.2227L280.048 87.5893L322.856 267.336L277.904 278.042L288.61 322.993L409.099 294.298C427.201 289.986 442.382 284.189 454.573 276.888C466.778 269.648 475.869 259.844 481.914 247.492C487.959 235.14 491.01 219.65 490.945 201.05C490.895 182.51 487.613 159.702 481.146 132.548C474.621 105.152 467.413 83.3747 459.505 67.2846C451.494 50.8979 442.215 38.8895 431.675 31.2896C421.125 23.3217 408.306 18.9307 395.086 18.7563C381.309 18.1859 365.233 20.0888 346.918 24.4507L269.377 42.9181L224.766 53.5746ZM325.054 68.622L354.121 61.6995C364.144 59.3124 373.105 58.3977 380.884 58.9845C388.942 59.3115 396.545 62.8066 402.04 68.7099C408.381 74.5816 414.059 83.5964 419.14 95.77C424.496 107.878 429.65 124.4 434.641 145.357C439.618 166.254 442.432 183.461 443.198 196.919C444.179 210.069 443.204 220.797 440.278 229.132C437.575 236.83 432.351 243.389 425.454 247.747C418.722 251.822 410.492 255.002 400.682 257.338L371.646 264.254L325.054 68.622Z" fill="#F14D34"/>
<path d="M201.124 153.884L246.076 143.179L235.37 98.2268L190.418 108.933L201.124 153.884Z" fill="#F9E050"/>
<path d="M198.98 344.338L243.932 333.632L233.226 288.68L188.274 299.386L198.98 344.338Z" fill="#F9B038"/>
<path d="M145.466 119.64L190.418 108.935L179.784 64.2865L134.833 74.9922L145.466 119.64Z" fill="#F9E050"/>
</mask>
<g mask="url(#mask0_94_704)">
<g filter="url(#filter1_d_94_704)">
<path d="M226.369 259.886L287.419 245.346L272.879 184.297L211.83 198.836L226.369 259.886Z" fill="#F9E050"/>
<path d="M100.513 130.345L161.563 115.806L150.93 71.1576L89.8801 85.6972L100.513 130.345Z" fill="#F4F464"/>
<path d="M156.172 164.59L217.221 150.051L202.681 89.0014L141.632 103.541L156.172 164.59ZM21.3465 196.7L66.2983 185.995L55.5926 141.043L10.6408 151.749L21.3465 196.7ZM121.911 220.187L166.863 209.481L156.157 164.53L111.205 175.235L121.911 220.187Z" fill="#F4F464"/>
<path d="M237.046 304.717L298.096 290.177L283.556 229.128L222.507 243.667L237.046 304.717Z" fill="#F9B038"/>
<path d="M227.864 337.46L304.95 319.101L294.244 274.149L217.158 292.508L227.864 337.46Z" fill="#F6842D"/>
<path d="M109.107 365.742L154.059 355.036L143.353 310.084L98.4016 320.79L109.107 365.742Z" fill="#F9E050"/>
<path d="M194.252 125.032L255.302 110.492L240.835 49.7468L179.785 64.2863L194.252 125.032Z" fill="#F6842D"/>
<path d="M143.315 310.061L188.267 299.356L177.561 254.404L132.609 265.109L143.315 310.061Z" fill="#F4F464"/>
<path d="M249.635 159.345L310.685 144.805L296.145 83.7556L235.096 98.2951L249.635 159.345Z" fill="#F4AC2B"/>
<path d="M260.319 204.204L321.368 189.664L306.829 128.615L245.779 143.155L260.319 204.204Z" fill="#F6842D"/>
<path d="M271.047 249.245L332.096 234.706L317.557 173.656L256.507 188.196L271.047 249.245Z" fill="#F4AC2B"/>
<path d="M281.723 294.076L342.773 279.537L328.233 218.487L267.184 233.027L281.723 294.076Z" fill="#F6842D"/>
<path d="M224.766 53.5746L235.399 98.2227L280.048 87.5893L322.856 267.336L277.904 278.042L288.61 322.993L409.099 294.298C427.201 289.986 442.382 284.189 454.573 276.888C466.778 269.648 475.869 259.844 481.914 247.492C487.959 235.14 491.01 219.65 490.945 201.05C490.895 182.51 487.613 159.702 481.146 132.548C474.621 105.152 467.413 83.3747 459.505 67.2846C451.494 50.8979 442.215 38.8895 431.675 31.2896C421.125 23.3217 408.306 18.9307 395.086 18.7563C381.309 18.1859 365.233 20.0888 346.918 24.4507L269.377 42.9181L224.766 53.5746ZM325.054 68.622L354.121 61.6995C364.144 59.3124 373.105 58.3977 380.884 58.9845C388.942 59.3115 396.545 62.8066 402.04 68.7099C408.381 74.5816 414.059 83.5964 419.14 95.77C424.496 107.878 429.65 124.4 434.641 145.357C439.618 166.254 442.432 183.461 443.198 196.919C444.179 210.069 443.204 220.797 440.278 229.132C437.575 236.83 432.351 243.389 425.454 247.747C418.722 251.822 410.492 255.002 400.682 257.338L371.646 264.254L325.054 68.622Z" fill="#F14D34"/>
<path d="M201.124 153.884L246.076 143.179L235.37 98.2268L190.418 108.933L201.124 153.884Z" fill="#F9E050"/>
<path d="M198.98 344.338L243.932 333.632L233.226 288.68L188.274 299.386L198.98 344.338Z" fill="#F9B038"/>
<path d="M145.466 119.64L190.418 108.935L179.784 64.2865L134.833 74.9922L145.466 119.64Z" fill="#F9E050"/>
</g>
<rect y="107.072" width="129.404" height="77.6424" transform="rotate(-13.396 0 107.072)" fill="url(#paint0_linear_94_704)"/>
</g>
</g>
<defs>
<filter id="filter0_dd_94_704" x="-9.00201" y="0" width="531.738" height="408.706" filterUnits="userSpaceOnUse" color-interpolation-filters="sRGB">
<feFlood flood-opacity="0" result="BackgroundImageFix"/>
<feColorMatrix in="SourceAlpha" type="matrix" values="0 0 0 0 0 0 0 0 0 0 0 0 0 0 0 0 0 0 127 0" result="hardAlpha"/>
<feOffset dy="23.2258"/>
<feGaussianBlur stdDeviation="4.49532"/>
<feColorMatrix type="matrix" values="0 0 0 0 0 0 0 0 0 0.0495833 0 0 0 0 0.145833 0 0 0 0.25 0"/>
<feBlend mode="normal" in2="BackgroundImageFix" result="effect1_dropShadow_94_704"/>
<feColorMatrix in="SourceAlpha" type="matrix" values="0 0 0 0 0 0 0 0 0 0 0 0 0 0 0 0 0 0 127 0" result="hardAlpha"/>
<feOffset dy="2.62227"/>
<feColorMatrix type="matrix" values="0 0 0 0 0.2375 0 0 0 0 0.136562 0 0 0 0 0.136562 0 0 0 1 0"/>
<feBlend mode="normal" in2="effect1_dropShadow_94_704" result="effect2_dropShadow_94_704"/>
<feBlend mode="normal" in="SourceGraphic" in2="effect2_dropShadow_94_704" result="shape"/>
</filter>
<filter id="filter1_d_94_704" x="1.63875" y="18.6574" width="498.309" height="379.342" filterUnits="userSpaceOnUse" color-interpolation-filters="sRGB">
<feFlood flood-opacity="0" result="BackgroundImageFix"/>
<feColorMatrix in="SourceAlpha" type="matrix" values="0 0 0 0 0 0 0 0 0 0 0 0 0 0 0 0 0 0 127 0" result="hardAlpha"/>
<feOffset dy="23.2258"/>
<feGaussianBlur stdDeviation="4.49532"/>
<feColorMatrix type="matrix" values="0 0 0 0 0 0 0 0 0 0.0495833 0 0 0 0 0.145833 0 0 0 0.25 0"/>
<feBlend mode="normal" in2="BackgroundImageFix" result="effect1_dropShadow_94_704"/>
<feBlend mode="normal" in="SourceGraphic" in2="effect1_dropShadow_94_704" result="shape"/>
</filter>
<linearGradient id="paint0_linear_94_704" x1="54.9498" y1="69.751" x2="84.9565" y2="162.959" gradientUnits="userSpaceOnUse">
<stop stop-color="white"/>
<stop offset="1" stop-color="white" stop-opacity="0"/>
</linearGradient>
</defs>
</svg>
