<svg width="493" height="493" viewBox="0 0 493 493" fill="none" xmlns="http://www.w3.org/2000/svg">
<g opacity="0.04" clip-path="url(#clip0_94_620)">
<path d="M467.719 28.9199H314.01C300.054 28.9199 288.728 40.2459 288.728 54.201V207.91C288.728 221.866 300.054 233.191 314.01 233.191H387.578C386.617 273.439 377.263 305.647 359.566 329.866C345.611 348.979 324.476 364.805 296.212 377.294C283.217 383.007 277.605 398.378 283.672 411.221L301.875 449.649C307.74 461.985 322.251 467.396 334.791 461.985C368.263 447.525 396.528 429.221 419.583 406.974C447.697 379.822 466.96 349.181 477.376 315.001C487.792 280.821 493 234.203 493 175.045V54.201C493 40.2464 481.673 28.9199 467.719 28.9199Z" fill="#050C33"/>
<path d="M53.6141 461.884C86.6818 447.474 114.794 429.171 138.002 406.974C166.368 379.822 185.733 349.282 196.149 315.355C206.565 281.428 211.772 234.658 211.772 175.045V54.201C211.772 40.2459 200.447 28.9199 186.491 28.9199H32.7819C18.8267 28.9199 7.50079 40.2459 7.50079 54.201V207.91C7.50079 221.866 18.8267 233.191 32.7819 233.191H106.35C105.389 273.439 96.0353 305.647 78.3385 329.866C64.3833 348.979 43.2483 364.805 14.984 377.294C1.98951 383.007 -3.6229 398.378 2.44457 411.221L20.5964 449.548C26.4621 461.884 41.0746 467.346 53.6141 461.884Z" fill="#050C33"/>
</g>
<defs>
<clipPath id="clip0_94_620">
<rect width="493" height="493" fill="white"/>
</clipPath>
</defs>
</svg>
