<svg width="1154" height="1248" viewBox="0 0 1154 1248" fill="none" xmlns="http://www.w3.org/2000/svg">
<g clip-path="url(#clip0_94_301)">
<path fill-rule="evenodd" clip-rule="evenodd" d="M635.291 227.91C662.232 232.721 689.567 237.602 718.734 246.908C719.272 247.084 719.851 247.272 720.468 247.473C761.857 260.939 979.127 331.629 1044.13 588.564C1110.1 849.331 947.565 1073.66 709.967 1133.76C472.368 1193.87 211.12 1061.06 146.898 807.199C82.6753 553.34 251.197 385.06 282.961 357.152C292.169 348.622 300.862 340.998 309.332 333.568C335.242 310.842 359.072 289.94 389.2 250.548C407.811 224.909 421.669 192.123 411.354 122.472C457.584 155.932 512.44 194.382 548.233 207.317C577.982 217.677 606.41 222.753 635.291 227.91ZM379.948 911.458C361.597 834.727 415.351 744.694 505.783 720.464C572.908 702.865 637.955 727.835 692.01 748.585C730.633 763.412 763.645 776.084 787.793 769.534C812.499 762.75 842.604 728.817 872.324 695.319C901.582 662.34 930.467 629.783 953.458 623.966C1002.74 611.499 1029.47 659.181 1037.19 689.684C1044.91 720.187 1048.99 777.774 1034.33 818.111C1019.67 858.449 1007.52 875.163 979.72 880.08C962.895 882.89 932.566 864.508 900.311 844.96C863.103 822.409 823.333 798.306 798.772 803.386C773.204 808.921 740.707 841.638 703.987 878.607C657.44 925.468 604.109 979.16 549.508 992.974C490.371 1007.93 470.401 1003.52 447.405 995.756C412.608 982.569 389.911 954.798 379.906 911.292L379.948 911.458ZM839.76 875.742C826.022 870.81 808.993 874.06 793.212 878.052L793.267 878.038C791.432 878.502 789.687 878.929 788.011 879.34C775.276 882.457 766.579 884.586 753.345 894.428C738.655 905.355 725.318 924.992 716.711 937.665L716.216 938.393C707.63 951.031 707.802 959.63 715.656 965.757C723.473 971.855 728.147 965.527 741.3 947.717L741.487 947.463C742.645 945.896 743.761 944.355 744.857 942.841L744.863 942.834L744.864 942.833C756.358 926.962 765.654 914.127 797.142 906.161C830.883 897.625 840.273 908.019 850.232 919.043L850.603 919.454L850.901 919.783L851.003 919.896C861.132 931.085 862.627 932.737 868.481 927.095C870.25 925.983 871.753 924.497 872.884 922.742C874.015 920.987 874.747 919.006 875.027 916.939C875.308 914.872 875.13 912.769 874.507 910.778C873.885 908.788 872.832 906.959 871.423 905.42L871.344 905.311C864.909 896.448 853.441 880.654 839.76 875.742ZM777.544 1031.77C714.421 1047.74 681.609 1042.4 657.913 1031.64L658.051 1031.48C657.559 1031.31 657.159 1031.16 656.816 1031.03L656.813 1031.03C654.77 1030.25 654.77 1030.25 649.699 1031.54C644.197 1033.35 639.553 1037.12 636.648 1042.13C635.564 1043.81 634.839 1045.7 634.515 1047.67C634.192 1049.64 634.278 1051.66 634.768 1053.6C635.258 1055.54 636.142 1057.35 637.365 1058.94C638.588 1060.52 640.123 1061.83 641.876 1062.8C695.2 1091.23 766.428 1070.03 818.451 1051.64C854.886 1037.73 886.987 1014.44 911.483 984.125C913.252 981.522 914.181 978.441 914.144 975.297C914.107 972.153 913.106 969.097 911.276 966.539C909.273 962.813 903.804 957.964 896.678 967.057C880.533 986.84 840.667 1015.8 777.544 1031.77Z" fill="url(#paint0_linear_94_301)" fill-opacity="0.192"/>
</g>
<defs>
<linearGradient id="paint0_linear_94_301" x1="2078.4" y1="-935.761" x2="44.1858" y2="-47.4876" gradientUnits="userSpaceOnUse">
<stop/>
<stop offset="1" stop-color="white" stop-opacity="0"/>
</linearGradient>
<clipPath id="clip0_94_301">
<rect width="923.603" height="1053.56" fill="white" transform="translate(0 226.538) rotate(-14.197)"/>
</clipPath>
</defs>
</svg>
